# xmcd
#
# Track frame offsets:
#	150
#	31118
#	52831
#	74858
#
# Disc length: 1303 seconds
#
# Revision: 2
# Processed by: cddbd v1.5.1PL0 Copyright (c) Steve Scherf et al.
# Submitted via: EasyCDDAExtractor 8.0.2.1
#
DISCID=30051504
DTITLE=Ozzy Osbourne - Verizon Wireless Amphitheater Selma 07-09-02 Disc 2
DYEAR=2002
DGENRE=Hard Rock
TTITLE0=Crazy Train
TTITLE1=Mama I'm Coming Home
TTITLE2=Bark At The Moon
TTITLE3=Paranoid
EXTD=
EXTT0=
EXTT1=
EXTT2=
EXTT3=
PLAYORDER=
